Coordinates
version=1
nRows=25
nColumns=33
inDegrees=yes

Units are S.I. units (second, meters, Newtons, ...)
Angles are in degrees.

endheader
time	ground_thorax_rot_x	ground_thorax_rot_y	ground_thorax_rot_z	ground_thorax_tx	ground_thorax_ty	ground_thorax_tz	clav_prot_r	clav_elev_r	scapula_abduction_r	scapula_elevation_r	scapula_upward_rot_r	scapula_winging_r	shoulder_elv_r	plane_of_elev_r	axial_rot_r	elbow_flexion_r	pro_sup_r	wrist_flex_r	wrist_dev_r	clav_prot_l	clav_elev_l	scapula_abduction_l	scapula_elevation_l	scapula_upward_rot_l	scapula_winging_l	shoulder_elv_l	plane_of_elev_l	axial_rot_l	elbow_flexion_l	pro_sup_l	wrist_flex_l	wrist_dev_l	
7.1300	23.658835	31.789794	49.650512	63.367575	761.213652	-32.415340	12.386582	35.903562	25.892484	45.000000	-45.000000	-3675.253365	-2450.025045	21.628017	180.000000	1804.567214	-169.347824	11.065572	12.654538	-14.858417	-45.000000	-32.302730	45.000000	-45.000000	-1703.303357	-1368.438095	22.804062	20.214326	1790.564317	47.917230	11.505478	-13.194465	
7.1400	23.707113	31.844477	49.512170	63.004160	761.018297	-32.411621	12.352425	35.911084	25.908879	45.000000	-45.000000	-3675.318957	-2450.016901	21.633833	180.000000	1804.601188	-169.517786	11.037795	12.663337	-14.922304	-45.000000	-32.349823	45.000000	-45.000000	-1703.273034	-1368.446283	22.780770	20.099614	1790.580006	47.717505	11.621654	-13.266646	
7.1500	23.721673	31.906529	49.447997	62.603871	760.829491	-32.414153	12.298733	35.886557	25.874830	45.000000	-45.000000	-3675.333205	-2449.961684	21.634018	180.000000	1804.665326	-169.711616	11.030540	12.685306	-15.053708	-45.000000	-32.306874	45.000000	-45.000000	-1703.196882	-1368.402444	22.798071	19.999159	1790.523260	47.500789	11.580123	-13.265650	
7.1600	23.752929	31.962633	49.342149	62.125047	760.657413	-32.430990	12.276770	35.882281	25.864890	45.000000	-45.000000	-3675.375820	-2449.928042	21.640306	180.000000	1804.722623	-169.946946	11.014086	12.706725	-15.101921	-45.000000	-32.308023	45.000000	-45.000000	-1703.140191	-1368.360708	22.801438	19.924430	1790.485405	47.216170	11.611722	-13.287781	
7.1700	23.794214	32.012073	49.218258	61.563356	760.501722	-32.462057	12.265198	35.889855	25.863116	45.000000	-45.000000	-3675.429774	-2449.897993	21.655874	180.000000	1804.780431	-170.220580	10.996575	12.730880	-15.108416	-45.000000	-32.311726	45.000000	-45.000000	-1703.084096	-1368.309046	22.807743	19.868454	1790.445596	46.878187	11.669855	-13.313836	
7.1800	23.834322	32.061195	49.098306	60.909140	760.363614	-32.508096	12.267478	35.890819	25.847892	45.000000	-45.000000	-3675.490526	-2449.854045	21.681724	180.000000	1804.828873	-170.533030	10.989914	12.761255	-15.097790	-45.000000	-32.302413	45.000000	-45.000000	-1703.012829	-1368.242499	22.824203	19.840277	1790.392958	46.491883	11.705332	-13.336109	
7.1900	23.886042	32.103856	48.956085	60.162927	760.242106	-32.567510	12.274173	35.902693	25.844230	45.000000	-45.000000	-3675.563235	-2449.816013	21.713436	180.000000	1804.874460	-170.874496	10.981455	12.791946	-15.055061	-45.000000	-32.305555	45.000000	-45.000000	-1702.945086	-1368.172886	22.838880	19.823356	1790.345130	46.069106	11.774040	-13.366541	
7.2000	23.935208	32.146478	48.815641	59.329526	760.135618	-32.637581	12.279641	35.902985	25.834264	45.000000	-45.000000	-3675.636936	-2449.771172	21.748500	180.000000	1804.921667	-171.234423	10.983588	12.831835	-15.026623	-45.000000	-32.313883	45.000000	-45.000000	-1702.863748	-1368.097702	22.861202	19.819464	1790.282147	45.627696	11.812643	-13.398651	
7.2100	23.998747	32.181963	48.640699	58.412940	760.043622	-32.715656	12.284228	35.919449	25.848761	45.000000	-45.000000	-3675.718887	-2449.743901	21.777044	180.000000	1804.968604	-171.599170	10.975950	12.864422	-14.970646	-45.000000	-32.358871	45.000000	-45.000000	-1702.800116	-1368.029088	22.869212	19.812966	1790.236536	45.178350	11.903262	-13.439336	
7.2200	24.056094	32.221944	48.467634	57.416122	759.966435	-32.799219	12.290252	35.923129	25.858979	45.000000	-45.000000	-3675.801847	-2449.714934	21.800697	180.000000	1805.021437	-171.961666	10.979255	12.905307	-14.929065	-45.000000	-32.419449	45.000000	-45.000000	-1702.728948	-1367.959789	22.880840	19.817111	1790.179856	44.728950	11.957212	-13.483419	
7.2300	24.122726	32.257398	48.271870	56.340607	759.905406	-32.886130	12.293226	35.939136	25.888324	45.000000	-45.000000	-3675.886535	-2449.698707	21.814222	180.000000	1805.079971	-172.310390	10.975006	12.943247	-14.866129	-45.000000	-32.500371	45.000000	-45.000000	-1702.671221	-1367.890492	22.883982	19.819589	1790.130714	44.285617	12.042433	-13.524928	
7.2400	24.186384	32.295905	48.076361	55.187000	759.862723	-32.974662	12.297563	35.940871	25.911548	45.000000	-45.000000	-3675.980041	-2449.682057	21.833680	180.000000	1805.143476	-172.637053	10.989126	12.994849	-14.821298	-45.000000	-32.592315	45.000000	-45.000000	-1702.601166	-1367.825155	22.895561	19.834596	1790.065773	43.852874	12.086812	-13.584496	
7.2500	24.259935	32.329015	47.866539	53.954362	759.841139	-33.063642	12.300759	35.952331	25.941498	45.000000	-45.000000	-3676.077110	-2449.666115	21.848244	180.000000	1805.193471	-172.929792	11.000257	13.039660	-14.756258	-45.000000	-32.677668	45.000000	-45.000000	-1702.536202	-1367.756034	22.903740	19.854805	1790.011633	43.439472	12.153468	-13.634244	
7.2600	24.327728	32.367218	47.666027	52.641055	759.843794	-33.152448	12.311494	35.944679	25.952674	45.000000	-45.000000	-3676.186535	-2449.642130	21.875159	180.000000	1805.240520	-173.184666	11.038706	13.094746	-14.709951	-45.000000	-32.763724	45.000000	-45.000000	-1702.453610	-1367.690284	22.921923	19.893885	1789.941791	43.043866	12.158434	-13.706183	
7.2700	24.403098	32.400331	47.457299	51.244574	759.873889	-33.241087	12.322661	35.942747	25.966828	45.000000	-45.000000	-3676.296745	-2449.615242	21.894954	180.000000	1805.272141	-173.393106	11.074440	13.140478	-14.643890	-45.000000	-32.846439	45.000000	-45.000000	-1702.375794	-1367.618858	22.931378	19.937733	1789.886499	42.672461	12.179319	-13.763477	
7.2800	24.480943	32.430144	47.245097	49.762619	759.934546	-33.330103	12.333295	35.933104	25.978422	45.000000	-45.000000	-3676.416861	-2449.587827	21.921091	180.000000	1805.304553	-173.552828	11.126630	13.188099	-14.589773	-45.000000	-32.941321	45.000000	-45.000000	-1702.286667	-1367.551944	22.947407	19.993979	1789.824902	42.326454	12.164695	-13.839062	
7.2900	24.573800	32.447346	47.017177	48.193091	760.028564	-33.420521	12.338846	35.936336	25.994305	45.000000	-45.000000	-3676.533815	-2449.554145	21.942478	180.000000	1805.321380	-173.660093	11.167662	13.222487	-14.512312	-45.000000	-33.017400	45.000000	-45.000000	-1702.202614	-1367.472887	22.964967	20.054149	1789.778511	42.019244	12.185702	-13.890399	
7.3000	24.672064	32.458687	46.782039	46.534617	760.158334	-33.513663	12.342553	35.935291	26.008347	45.000000	-45.000000	-3676.661359	-2449.522176	21.971283	180.000000	1805.341743	-173.722602	11.224298	13.258027	-14.444965	-45.000000	-33.100849	45.000000	-45.000000	-1702.108151	-1367.397548	22.995462	20.123866	1789.722121	41.750036	12.174801	-13.961146	
7.3100	24.780195	32.459984	46.537739	44.786596	760.325785	-33.610939	12.342429	35.938285	26.023406	45.000000	-45.000000	-3676.789398	-2449.487242	21.997497	180.000000	1805.352290	-173.744601	11.275582	13.291532	-14.360736	-45.000000	-33.171987	45.000000	-45.000000	-1702.017906	-1367.311068	23.025699	20.198085	1789.678204	41.528336	12.194415	-14.014656	
7.3200	24.893442	32.453622	46.287357	42.949487	760.532438	-33.713630	12.339448	35.939972	26.036854	45.000000	-45.000000	-3676.927383	-2449.456250	22.028429	180.000000	1805.363580	-173.737882	11.342931	13.325537	-14.283725	-45.000000	-33.250888	45.000000	-45.000000	-1701.918273	-1367.229787	23.065414	20.280500	1789.629105	41.351114	12.184747	-14.088059	
7.3300	25.009068	32.441117	46.037297	41.024626	760.779501	-33.822724	12.338603	35.935994	26.042025	45.000000	-45.000000	-3677.062445	-2449.420886	22.056705	180.000000	1805.372174	-173.710128	11.406146	13.361406	-14.193250	-45.000000	-33.321121	45.000000	-45.000000	-1701.823849	-1367.135015	23.098515	20.368440	1789.594517	41.222295	12.201995	-14.144787	
7.3400	25.118633	32.428696	45.798543	39.014211	761.067977	-33.938837	12.341532	35.924014	26.041411	45.000000	-45.000000	-3677.202225	-2449.389130	22.077315	180.000000	1805.383137	-173.674038	11.485116	13.395289	-14.106445	-45.000000	-33.408472	45.000000	-45.000000	-1701.721080	-1367.044367	23.123269	20.457674	1789.564469	41.131973	12.184258	-14.219573	
7.3500	25.224825	32.414690	45.568529	36.920888	761.398755	-34.062217	12.347939	35.904573	26.033149	45.000000	-45.000000	-3677.337944	-2449.353335	22.087552	180.000000	1805.393345	-173.634327	11.564318	13.428800	-14.008921	-45.000000	-33.500403	45.000000	-45.000000	-1701.621277	-1366.946667	23.130899	20.549628	1789.554663	41.077868	12.177379	-14.284941	
7.3600	25.340070	32.392119	45.329770	34.747688	761.772596	-34.192793	12.346985	35.892829	26.031213	45.000000	-45.000000	-3677.479372	-2449.323127	22.093157	180.000000	1805.406013	-173.595501	11.653607	13.461505	-13.912572	-45.000000	-33.604439	45.000000	-45.000000	-1701.512743	-1366.860125	23.140435	20.643560	1789.550250	41.052397	12.151226	-14.368410	
7.3700	25.466000	32.359331	45.078624	32.497366	762.190132	-34.330267	12.344130	35.879529	26.025321	45.000000	-45.000000	-3677.620760	-2449.290241	22.104605	180.000000	1805.423092	-173.556799	11.742660	13.501339	-13.814715	-45.000000	-33.705112	45.000000	-45.000000	-1701.405648	-1366.770394	23.151741	20.742817	1789.550447	41.056100	12.142019	-14.449110	
